<?xml version="1.0" encoding="UTF-8"?>
<svg preserveAspectRatio="none" viewBox="0 0 141 9" version="1.1" xmlns="http://www.w3.org/2000/svg" xmlns:xlink="http://www.w3.org/1999/xlink">
    <title>Path</title>
    <g id="Page-1" stroke="none" stroke-width="1" fill="none" fill-rule="evenodd">
        <g id="Artboard-Copy-143" transform="translate(-821.000000, -2629.000000)" fill="#D9FF78">
            <path d="M959.684781,2635.12392 L959.276741,2635.07581 C958.462043,2634.98484 957.660166,2634.93771 956.9524,2635.15496 L955.59521,2634.97298 L955.59521,2634.97298 L954.132895,2634.77373 L954.132895,2634.77373 L953.961274,2634.74548 C953.743683,2634.70306 953.699496,2634.65439 953.749347,2634.5176 L953.795641,2634.41246 L953.795641,2634.41246 L953.828177,2634.34837 L953.828177,2634.34837 L953.969438,2634.37396 L953.969438,2634.37396 L954.255008,2634.43195 C954.396936,2634.45918 954.535707,2634.47974 954.662891,2634.47553 C955.236799,2634.45636 955.814104,2634.4641 956.392412,2634.47935 L957.549653,2634.51412 C957.742512,2634.51967 957.935306,2634.52461 958.127945,2634.52824 C958.488664,2634.53489 958.968192,2634.49764 959.158394,2634.39697 C959.728614,2634.09526 960.489246,2634.01158 961.389678,2634.00915 C961.463295,2634.00872 961.531871,2633.96665 961.588865,2633.92078 L961.664852,2633.85386 L961.664852,2633.85386 C961.683283,2633.83729 961.573303,2633.76591 961.505586,2633.75738 L959.220023,2633.47665 L959.220023,2633.47665 L957.988263,2633.32125 C957.170022,2633.21417 956.363841,2633.08795 955.606894,2632.86972 C955.387546,2632.80659 955.146787,2632.76096 954.901495,2632.71817 L954.409871,2632.63205 C954.08476,2632.57139 953.771597,2632.49844 953.51039,2632.3785 C952.649288,2632.29955 951.786833,2632.22408 950.927474,2632.13932 C950.833349,2632.1301 950.741933,2632.11271 950.651171,2632.09314 L950.37879,2632.03389 L950.37879,2632.03389 C950.110311,2632.09984 949.817187,2632.10323 949.518604,2632.09333 L948.979402,2632.0718 C948.919757,2632.07018 948.860354,2632.0692 948.801346,2632.06927 L948.361951,2632.07428 L948.361951,2632.07428 L947.485928,2632.09543 L947.485928,2632.09543 C946.682571,2631.92256 945.800696,2631.92685 944.981131,2631.73739 C944.270543,2631.57272 943.481886,2631.52285 942.722717,2631.58973 L942.470519,2631.61625 C942.004474,2631.50896 941.52441,2631.47388 941.041727,2631.45215 L940.461978,2631.42873 C940.268796,2631.42056 940.075924,2631.41075 939.884092,2631.39555 C939.708282,2631.38157 939.531563,2631.37105 939.354437,2631.36207 L938.556329,2631.32553 C937.847481,2631.29071 937.144207,2631.23424 936.478697,2631.03283 C936.366957,2630.99927 936.224674,2630.9844 936.074067,2630.9759 L935.619497,2630.9572 L935.619497,2630.9572 L934.16644,2630.87277 C933.682211,2630.84594 933.198401,2630.82235 932.715899,2630.80779 C932.341304,2630.796 931.971568,2630.82983 931.601589,2630.85645 L931.322066,2630.87412 C928.745038,2630.6472 926.069148,2630.56036 922.737175,2630.59461 C922.257729,2630.55449 921.769017,2630.48303 921.299586,2630.47929 C919.142456,2630.46307 916.98729,2630.44753 914.817723,2630.30901 L914.003429,2630.25106 C913.906236,2630.24366 913.806938,2630.23631 913.71087,2630.23568 C910.128974,2630.21203 906.542011,2630.16017 902.94528,2630.05643 C902.557209,2630.04526 902.169745,2630.03919 901.782473,2630.03482 L900.620828,2630.02335 C899.652587,2630.01233 898.68298,2629.99053 897.705567,2629.90456 C897.249192,2629.94284 896.800727,2630.01716 896.333976,2630.01291 C894.639557,2629.9978 892.956462,2630.01233 891.286227,2630.06089 L890.284302,2630.09398 L890.284302,2630.09398 L888.875553,2630.0492 C888.406015,2630.03477 887.937139,2630.02294 887.470767,2630.02001 C887.018364,2630.01731 886.581797,2630.08223 886.138452,2630.11587 C885.395742,2629.94826 884.703729,2630.00191 884.021718,2630.09517 C883.2613,2629.95644 882.551282,2629.9603 881.894301,2630.11915 C880.437596,2629.94364 879.041587,2629.97586 877.679231,2630.12443 L875.884756,2629.94669 L875.884756,2629.94669 C875.619662,2629.90376 875.385322,2629.91108 875.179579,2629.96504 L875.078507,2629.99594 L875.078507,2629.99594 L875.062624,2629.9956 C874.590347,2629.87694 874.139442,2629.82958 873.753218,2629.99929 L872.698245,2630.1926 L872.698245,2630.1926 L872.696134,2630.19427 C871.755954,2630.04235 870.806791,2630.00785 869.86034,2629.99213 L869.050033,2629.98095 L869.050033,2629.98095 C868.926903,2629.97926 868.812314,2630.01814 868.699564,2630.06482 L868.53098,2630.13657 C868.502833,2630.14813 868.474591,2630.15916 868.44615,2630.16914 L867.88899,2630.12698 C867.703427,2630.11347 867.518786,2630.10306 867.337361,2630.10339 C864.104822,2630.10663 860.914141,2630.23304 857.674204,2630.21756 C857.303707,2630.21573 856.946626,2630.26464 856.587199,2630.30499 L856.315985,2630.33267 L856.315985,2630.33267 L856.152565,2630.31445 L856.152565,2630.31445 L855.820421,2630.2704 C855.599344,2630.24154 855.382584,2630.2189 855.191813,2630.23357 C854.504859,2630.28668 853.806427,2630.2989 853.104162,2630.29956 L851.520821,2630.29396 L851.520821,2630.29396 C850.186551,2630.29354 848.881934,2630.34981 847.68832,2630.56684 C845.80448,2630.44116 844.077923,2630.59348 842.408046,2630.84437 L840.728498,2630.74619 L840.728498,2630.74619 L840.009616,2631.03726 L840.009616,2631.03726 L840.011358,2631.03186 L840.011358,2631.03186 C839.251396,2630.87224 838.573251,2630.90085 837.967446,2631.09136 L837.945474,2631.08093 C837.791415,2631.08916 837.635284,2631.09476 837.478267,2631.09923 L836.769729,2631.11678 C836.063234,2631.13678 835.374895,2631.17935 834.812931,2631.38084 L834.799339,2631.38191 C833.328987,2631.38547 832.354204,2631.46956 830.853306,2631.7223 L829.758968,2631.86562 C828.784862,2631.98969 827.795623,2632.0915 826.699242,2632.0639 C826.140156,2632.04976 825.581796,2632.09321 825.038078,2632.14293 L824.713715,2632.17311 C823.880766,2632.25029 823.067044,2632.35616 822.384621,2632.5657 C821.350257,2632.88366 820.877172,2633.31722 820.997356,2633.91159 C821.125756,2634.54563 821.519441,2635.16202 821.955369,2635.77739 L822.120386,2636.00814 C822.20761,2636.12849 822.307815,2636.25792 822.485438,2636.35842 C823.22783,2636.77791 823.988038,2637.1922 824.769899,2637.59864 C825.193015,2637.81933 825.773884,2637.91504 826.377981,2637.8825 L827.519799,2637.82473 C828.281895,2637.78588 829.039819,2637.74048 829.757914,2637.65335 C830.423771,2637.57226 831.103916,2637.50851 831.788621,2637.45039 L833.846694,2637.28116 C834.986863,2637.18349 836.112685,2637.06886 837.179132,2636.88299 C837.235686,2636.87323 837.298689,2636.86785 837.362367,2636.86403 L837.457668,2636.85912 C840.228066,2636.73888 842.848233,2636.4031 845.584171,2636.23237 C845.856559,2636.21537 846.098692,2636.14938 846.355672,2636.10589 L846.596221,2636.12064 L846.596221,2636.12064 L847.082883,2636.1578 C847.324699,2636.1744 847.560873,2636.18347 847.776237,2636.16459 C849.991709,2635.97244 852.258394,2635.90976 854.567726,2635.90962 C855.137452,2635.90945 855.700658,2635.88615 856.262044,2635.85648 L857.383783,2635.79363 C857.5708,2635.7834 857.757962,2635.7737 857.945445,2635.76516 C859.312093,2635.89327 860.642674,2635.85958 861.947103,2635.79453 L862.812957,2635.74794 L862.812957,2635.74794 C864.221523,2635.66892 865.629145,2635.64952 867.06197,2635.69201 L867.677657,2635.71402 C869.942254,2635.80839 872.063706,2635.68566 874.009682,2635.2884 L874.771485,2635.25251 C875.43833,2635.38864 876.136492,2635.43602 876.768323,2635.35379 C877.508716,2635.25711 878.27158,2635.24574 879.041671,2635.30114 C881.181471,2635.45541 883.301597,2635.43679 885.427365,2635.50027 C887.256914,2635.5553 889.075239,2635.4831 890.917235,2635.53594 C891.370555,2635.46197 891.869349,2635.45853 892.374631,2635.46318 L892.880631,2635.46821 C893.554331,2635.47235 894.21646,2635.45387 894.774608,2635.26476 C894.895991,2635.22346 895.079412,2635.2135 895.27962,2635.21207 L895.739325,2635.21364 C895.789309,2635.21328 895.83822,2635.21239 895.885353,2635.2106 L897.580587,2635.14863 L897.580587,2635.14863 C897.937496,2635.22508 898.277926,2635.23777 898.601892,2635.18294 L898.739343,2635.1556 L898.739343,2635.1556 C899.001936,2635.20229 899.264052,2635.27593 899.526761,2635.28992 C899.887051,2635.30979 900.2515,2635.29014 900.608466,2635.276 C900.746333,2635.27053 900.876072,2635.28908 901.003047,2635.3152 L901.254902,2635.37268 C901.464359,2635.42087 901.676075,2635.45962 901.914887,2635.41276 C903.494781,2635.71203 904.926616,2635.66884 906.216093,2635.29437 L906.33272,2635.26519 L906.33272,2635.26519 L906.453024,2635.23813 L906.453024,2635.23813 C907.371243,2635.37814 908.218699,2635.33856 909.033231,2635.21542 L909.254396,2635.17999 C910.015079,2635.37022 910.825716,2635.48581 911.591086,2635.4007 L911.798629,2635.37242 C912.71259,2635.22443 913.67176,2635.22594 914.638615,2635.27292 C915.321709,2635.30603 916.001404,2635.3203 916.67964,2635.32808 L918.711916,2635.34425 C919.389176,2635.35136 920.066919,2635.36432 920.747086,2635.39544 C922.808635,2635.48951 924.819301,2635.46915 926.812477,2635.36155 C927.185349,2635.34129 927.593775,2635.38676 927.97522,2635.37744 C928.255418,2635.37078 928.518916,2635.32415 928.790008,2635.29488 L929.072824,2635.33899 C929.167002,2635.3535 929.260638,2635.36532 929.352397,2635.36694 C932.495346,2635.42518 935.638109,2635.48196 938.778807,2635.52708 C939.07152,2635.53139 939.355209,2635.49 939.641148,2635.45647 L939.856393,2635.43348 L939.856393,2635.43348 L946.693765,2635.5159 L946.693765,2635.5159 C947.169949,2635.50424 947.673962,2635.52416 948.115643,2635.47412 C949.018915,2635.37201 949.83229,2635.47215 950.631583,2635.71183 C950.943852,2635.59811 951.323811,2635.57168 951.716157,2635.56097 L952.110584,2635.55285 C952.24207,2635.55013 952.372884,2635.5465 952.500979,2635.53932 C952.735748,2635.35626 953.116644,2635.31555 953.527677,2635.30725 L953.80489,2635.30532 L953.80489,2635.30532 L954.083396,2635.30575 L954.083396,2635.30575 L954.220747,2635.30459 C954.787249,2635.2961 955.370258,2635.32812 955.927625,2635.3051 C956.286507,2635.29025 956.613284,2635.20855 956.953925,2635.15657 C957.779384,2635.35707 958.638065,2635.36346 959.496395,2635.36045 C959.582324,2635.36024 959.673884,2635.33705 959.734829,2635.31228 C959.785041,2635.29196 959.822497,2635.25312 959.812652,2635.22305 C959.800143,2635.18864 959.740448,2635.13069 959.684781,2635.12392 Z" id="Path"></path>
        </g>
    </g>
</svg>