<?xml version="1.0" encoding="UTF-8"?>
<svg width="246px" height="31px" viewBox="0 0 246 31" version="1.1" xmlns="http://www.w3.org/2000/svg" xlink="http://www.w3.org/1999/xlink">
    <title>Group 5</title>
    <g id="Page-1" stroke="none" stroke-width="1" fill="none" fill-rule="evenodd">
        <g id="Artboard-Copy-143" transform="translate(-69.000000, -62.000000)">
            <g id="Group-5" transform="translate(70.000000, 63.000000)">
                <g id="Group-2-Copy-3" transform="translate(1.160599, 0.000000)">
                    <g id="Group-12"/>
                    <g class="text" id="Group" transform="translate(49.462172, 0.000000)" fill="#ECEED5">
                        <polygon id="Fill-2" points="14.9869207 19.1189154 3.17410238 0.220300336 0 0.220300336 0 23.4291484 2.78128983 23.4291484 2.78128983 4.59649478 14.5615581 23.4291484 17.7685265 23.4291484 17.7685265 0.220300336 14.9869207 0.220300336"/>
                        <g id="Group-29" transform="translate(20.529645, 0.000000)">
                            <path d="M7.81373178,8.65250549 C10.7438419,8.65250549 12.5998822,10.437888 12.7951391,13.247822 L2.70215327,13.247822 C3.19045255,10.3057084 5.0464929,8.65250549 7.81373178,8.65250549 M8.10677424,21.2482002 C5.01379289,21.2482002 2.7675533,18.8019197 2.57198205,15.3636536 L15.3995067,15.3636536 C15.4322067,15.1321796 15.4649068,14.5702566 15.4649068,14.2066031 C15.4649068,9.77667068 12.5998822,6.40449438 7.81373178,6.40449438 C2.99519573,6.40449438 0,10.0081446 0,14.9007057 C0,19.6614064 3.25585259,23.5955056 8.10677424,23.5955056 C12.1763542,23.5955056 15.0740787,21.3803798 15.6274636,17.9753182 L12.9903959,17.9753182 C12.4693966,20.0582644 10.7765419,21.2482002 8.10677424,21.2482002" id="Fill-3"/>
                            <path d="M36.8928503,1.34831461 L34.3109449,1.34831461 L34.3109449,6.65290497 L30.9224279,6.65290497 L30.9224279,8.99225764 L34.3109449,8.99225764 L34.3109449,18.0527945 C34.3109449,21.281814 36.3118904,23.258427 39.4099275,23.258427 L41.8949023,23.258427 L41.8949023,20.8535266 L39.506858,20.8535266 C37.9254254,20.8535266 36.8928503,19.7662622 36.8928503,17.9210628 L36.8928503,8.99225764 L41.8949023,8.99225764 L41.8949023,6.65290497 L36.8928503,6.65290497 L36.8928503,1.34831461 Z" id="Fill-5"/>
                            <path d="M62.5125835,2.53748994 C65.9971595,2.53748994 68.8306775,4.61350233 69.2216269,7.44792919 L72.1523318,7.44792919 C71.5336694,3.13072727 67.4628265,0 62.5125835,0 C56.8458621,0 51.5373798,3.82294357 51.5373798,11.7979119 C51.5373798,19.7397812 56.8131519,23.5955056 62.5125835,23.5955056 C67.560328,23.5955056 71.6314853,20.4647784 72.1199361,16.1478947 L69.2540225,16.1478947 C68.928179,18.9820033 66.0625799,21.0580157 62.5125835,21.0580157 C57.7576579,21.0580157 54.4032935,17.7955286 54.4032935,11.7979119 C54.4032935,5.79997699 57.7576579,2.53748994 62.5125835,2.53748994" id="Fill-7"/>
                            <path d="M82.9164504,6.60389554 C80.3798749,6.60389554 78.3042925,7.76538631 77.4478444,10.0883679 L77.4478444,0 L74.8123256,0 L74.8123256,23.5955056 L77.4478444,23.5955056 L77.4478444,14.5686326 C77.4478444,11.3165226 79.4903396,9.02655248 82.3234268,9.02655248 C84.8269152,9.02655248 86.4742735,10.951153 86.4742735,13.8055229 L86.4742735,23.5955056 L89.1097923,23.5955056 L89.1097923,13.3741304 C89.1097923,9.2919262 86.6718419,6.60389554 82.9164504,6.60389554" id="Fill-9"/>
                            <path d="M103.118316,15.8266014 C103.118316,19.2648675 101.188835,21.3474945 97.8857564,21.3474945 C95.7926695,21.3474945 94.4519189,20.2565339 94.4519189,18.5375604 C94.4519189,16.5867938 96.0545027,15.3968581 98.5070182,15.3968581 L103.118316,15.3968581 L103.118316,15.8266014 Z M98.7688515,6.40449438 C95.0731807,6.40449438 92.0644669,8.7846851 91.7697861,11.9914773 L94.255465,11.9914773 C94.3865395,10.1732095 96.2831726,8.65250549 98.7031563,8.65250549 C101.516048,8.65250549 103.118316,10.206414 103.118316,12.4876297 C103.118316,13.0163481 102.791419,13.3800017 102.07193,13.3800017 L98.3437278,13.3800017 C94.3536919,13.3800017 91.7697861,15.3968581 91.7697861,18.5704457 C91.7697861,21.612173 94.0267952,23.5955056 97.4931644,23.5955056 C100.044223,23.5955056 102.235221,22.3723654 103.118316,20.4548033 L103.118316,23.3311464 L105.734753,23.3311464 L105.734753,12.586924 C105.734753,8.88397944 103.052936,6.40449438 98.7688515,6.40449438 L98.7688515,6.40449438 Z" id="Fill-11"/>
                            <path d="M116.544448,21.1682747 C113.254882,21.1682747 111.104932,18.7297638 111.104932,14.9727001 C111.104932,11.2159547 113.254882,8.77712545 116.544448,8.77712545 C119.834014,8.77712545 121.98365,11.2159547 121.98365,14.9727001 C121.98365,18.7297638 119.834014,21.1682747 116.544448,21.1682747 M116.804896,6.40449438 C114.459924,6.40449438 112.343001,7.59096904 111.333295,9.40346185 L111.333295,6.66801397 L108.727247,6.66801397 L108.727247,30 L111.333295,30 L111.333295,20.6081365 C112.310288,22.3875302 114.427525,23.5409058 116.739784,23.5409058 C121.820713,23.5409058 124.687209,19.8172594 124.687209,14.9727001 C124.687209,10.128459 121.885825,6.40449438 116.804896,6.40449438" id="Fill-13"/>
                            <path d="M130.607809,1.34831461 L128.026215,1.34831461 L128.026215,6.65290497 L124.637698,6.65290497 L124.637698,8.99225764 L128.026215,8.99225764 L128.026215,18.0527945 C128.026215,21.281814 130.027161,23.258427 133.125198,23.258427 L135.610173,23.258427 L135.610173,20.8535266 L133.222129,20.8535266 C131.640384,20.8535266 130.607809,19.7662622 130.607809,17.9210628 L130.607809,8.99225764 L135.610173,8.99225764 L135.610173,6.65290497 L130.607809,6.65290497 L130.607809,1.34831461 Z" id="Fill-15"/>
                            <path d="M144.08906,8.65250549 C147.018797,8.65250549 148.8748,10.437888 149.070053,13.247822 L138.977585,13.247822 C139.465874,10.3057084 141.321563,8.65250549 144.08906,8.65250549 M144.382097,21.2482002 C141.289178,21.2482002 139.042669,18.8019197 138.847416,15.3636536 L151.674683,15.3636536 C151.707068,15.1321796 151.739767,14.5702566 151.739767,14.2066031 C151.739767,9.77667068 148.8748,6.40449438 144.08906,6.40449438 C139.270621,6.40449438 136.275171,10.0081446 136.275171,14.9007057 C136.275171,19.6614064 139.530958,23.5955056 144.382097,23.5955056 C148.451595,23.5955056 151.349261,21.3803798 151.902635,17.9753182 L149.26562,17.9753182 C148.744631,20.0582644 147.051811,21.2482002 144.382097,21.2482002" id="Fill-17"/>
                            <path d="M161.752209,6.74157303 C159.300648,6.74157303 157.908807,7.84508127 157.213206,10.1525341 L157.213206,6.74157303 L154.562629,6.74157303 L154.562629,23.5955056 L157.213206,23.5955056 L157.213206,16.1716112 C157.213206,12.1922643 158.173737,9.11587579 161.553511,9.11587579 L163.872607,9.11587579 L163.872607,6.74157303 L161.752209,6.74157303 Z" id="Fill-19"/>
                            <polygon id="Fill-21" points="30.2574295 6.74157303 27.3935815 6.74157303 23.7645835 11.5571861 25.17237 13.4482759"/>
                            <polygon id="Fill-23" points="23.4413545 12.627063 19.4204049 6.74157303 16.48705 6.74157303 21.9909098 14.7340065 15.9599628 23.5955056 18.7612276 23.5955056 23.4413545 16.8073628 28.1211631 23.5955056 30.9224279 23.5955056 24.8914809 14.7340065"/>
                            <polygon id="Fill-25" points="166.805196 7.45538373 165.535103 7.45538373 165.535103 6.74157303 168.860095 6.74157303 168.860095 7.45538373 167.595875 7.45538373 167.595875 11.1235955 166.805196 11.1235955"/>
                            <polygon id="Fill-27" points="169.525094 6.74157303 170.432177 6.74157303 171.689245 9.97794549 172.946313 6.74157303 173.847584 6.74157303 173.847584 11.1235955 173.112433 11.1235955 173.112433 8.21893507 171.985692 11.1235955 171.392799 11.1235955 170.260244 8.21893507 170.260244 11.1235955 169.525094 11.1235955"/>
                        </g>
                    </g>
                </g>
                <path class="icon" d="M17.9844937,0 L17.984,12.1 L5.892,24.201 L0,24.2016807 L0,12.411 L12.403,0 L17.9844937,0 Z M35.9689874,0 L35.9684937,11.79 L23.5654937,24.201 L17.9844937,24.2016807 L17.9844937,12.1 L30.0784937,0 L35.9689874,0 Z" id="Combined-Shape" stroke="#ECA4A3" stroke-width="1.62483874" transform="translate(17.984494, 12.100840) scale(-1, 1) translate(-17.984494, -12.100840) "/>
            </g>
        </g>
    </g>
</svg> 
