<?xml version="1.0" encoding="UTF-8"?>
<svg width="20px" height="18px" viewBox="0 0 20 18" version="1.1" xmlns="http://www.w3.org/2000/svg" xmlns:xlink="http://www.w3.org/1999/xlink">
    <title>22F27799-401B-4C5B-9DFF-F06463F966FA</title>
    <g id="Page-1" stroke="none" stroke-width="1" fill="none" fill-rule="evenodd">
        <g id="Project-Planner-Copy" transform="translate(-1529.000000, -2055.000000)" fill="#FFFFFF" fill-rule="nonzero">
            <g id="Group-Copy-8" transform="translate(1066.000000, 2052.407904)">
                <g id="upload" transform="translate(463.000000, 2.592096)">
                    <path d="M19.4269949,9.07971656 C19.1086587,9.07971656 18.8539898,9.31886625 18.8539898,9.61780337 L18.8539898,14.5124004 C18.8539898,15.843667 17.6994907,16.9238264 16.2860781,16.9238264 L3.7139219,16.9238264 C2.29626486,16.9238264 1.14601019,15.8396811 1.14601019,14.5124004 L1.14601019,9.5380868 C1.14601019,9.23914969 0.891341256,9 0.573005093,9 C0.25466893,9 0,9.23914969 0,9.5380868 L0,14.5124004 C0,16.4375554 1.66808149,18 3.7139219,18 L16.2860781,18 C18.336163,18 20,16.4335695 20,14.5124004 L20,9.61780337 C20,9.32285208 19.7453311,9.07971656 19.4269949,9.07971656 Z" id="Path"></path>
                    <path d="M6.92571141,4.57151424 L9.45605641,1.93523238 L9.45605641,13.4332834 C9.45605641,13.7481259 9.69780912,14 10,14 C10.3021909,14 10.5439436,13.7481259 10.5439436,13.4332834 L10.5439436,1.93523238 L13.0742886,4.57151424 C13.1790481,4.68065967 13.3200705,4.73943028 13.4570637,4.73943028 C13.5980861,4.73943028 13.7350793,4.68485757 13.8398388,4.57151424 C14.0533871,4.34902549 14.0533871,3.9922039 13.8398388,3.76971514 L10.3827751,0.167916042 C10.2820448,0.0629685157 10.1410224,0 10,0 C9.85494838,0 9.71795518,0.0587706147 9.61722488,0.167916042 L6.16016117,3.76971514 C5.94661294,3.9922039 5.94661294,4.34902549 6.16016117,4.57151424 C6.36968018,4.7898051 6.71619239,4.7898051 6.92571141,4.57151424 Z" id="Path"></path>
                </g>
            </g>
        </g>
    </g>
</svg>